<?xml version="1.0" encoding="UTF-8"?>
<svg id="Layer_1" data-name="Layer 1" xmlns="http://www.w3.org/2000/svg" viewBox="0 0 757.2 817.41">
  <defs>
    <style>
      .cls-1 {
        fill: #ffece5;
      }

      .cls-2 {
        fill: #e25959;
      }

      .cls-3 {
        stroke: #3eb7b2;
        stroke-width: 32px;
      }

      .cls-3, .cls-4, .cls-5, .cls-6 {
        fill: none;
        stroke-miterlimit: 10;
      }

      .cls-7 {
        fill: #3a3144;
      }

      .cls-8 {
        fill: #6ca5ea;
      }

      .cls-9 {
        fill: #385a7d;
      }

      .cls-10 {
        fill: #2e60b8;
      }

      .cls-11 {
        fill: #f97171;
      }

      .cls-12 {
        fill: #e8a54f;
      }

      .cls-13 {
        fill: #3eb7b2;
      }

      .cls-4 {
        stroke: #e8a54f;
        stroke-width: 50px;
      }

      .cls-5 {
        stroke: #385a7d;
      }

      .cls-5, .cls-6 {
        stroke-width: 80px;
      }

      .cls-14 {
        fill: #4f8ae0;
      }

      .cls-6 {
        stroke: #3a3144;
      }
    </style>
  </defs>
  <path class="cls-14" d="M352.13,176.94L26.47,364.95C10.09,374.41,0,391.89,0,410.81v353.66c0,29.24,23.7,52.94,52.94,52.94H704.26c29.24,0,52.95-23.7,52.95-52.95V410.81c0-18.92-10.09-36.39-26.47-45.85L405.07,176.94c-16.38-9.46-36.56-9.46-52.95,0Z"/>
  <ellipse class="cls-10" cx="416.17" cy="639.93" rx="236.09" ry="104.36"/>
  <path class="cls-6" d="M401.12,388.9s-98.89,218.55,27.54,355.39"/>
  <path class="cls-11" d="M340.22,535.57l39.75,39.09-38.92,58.83s-7.34-3.44-6.47-17.34,1.52-38.66-15.2-51.91"/>
  <path class="cls-2" d="M340.22,535.57l-20.85,28.67c9.89,7.84,13.7,19.7,14.99,30.96l28.93-36.93-23.07-22.69Z"/>
  <g>
    <path class="cls-13" d="M256.95,67.29l37.24,7.7s5.04-48.62-15.99-48.5c-23.46,.13-21.25,40.79-21.25,40.79Z"/>
    <path class="cls-13" d="M295.8,25.79c-1.08,4.74-2.34,9.43-3.81,14.07-.71,2.24-1.47,4.47-2.28,6.68-.73,2.01-1.31,4.52-2.63,6.23l1.44-1.44-.46,.31,2.02-.55h-.53c.67,.19,1.35,.37,2.02,.55,.56,.36-.68-1.12-.75-1.25-.28-.47-.54-.93-.67-1.47-.28-1.16,.02-2.49,.49-3.57,.9-2.11,2.68-4.05,4.94-4.61,4.99-1.24,2.88-8.96-2.13-7.71s-9.23,5.91-10.77,10.92c-.79,2.56-.85,5.49,.07,8.02s2.77,5.8,5.27,6.78c6.54,2.56,8.75-8.11,10.21-12.3,2.12-6.07,3.87-12.26,5.3-18.53,1.14-5.01-6.57-7.15-7.71-2.13h0Z"/>
    <path class="cls-13" d="M281.38,13.09c-.95,8.56-.06,17.2,2.55,25.41,1.17,3.67,6.96,2.1,5.79-1.6-2.47-7.75-3.23-15.73-2.33-23.81,.42-3.83-5.58-3.8-6,0h0Z"/>
    <path class="cls-13" d="M271.51,10.69c-.73,8.53-.19,17.05,1.5,25.44,.76,3.78,6.55,2.18,5.79-1.6-1.58-7.87-1.97-15.85-1.28-23.84,.33-3.85-5.67-3.82-6,0h0Z"/>
    <path class="cls-13" d="M261.29,12.4c-.6,9.35,.33,18.72,2.72,27.78,.98,3.73,6.77,2.15,5.79-1.6-2.26-8.58-3.08-17.33-2.5-26.18,.25-3.86-5.75-3.84-6,0h0Z"/>
    <path class="cls-13" d="M253.25,26.39c.35,9.24,2.69,18.39,4.99,27.31,.97,3.74,6.76,2.15,5.79-1.6-2.17-8.4-4.45-17-4.78-25.71-.15-3.85-6.15-3.87-6,0h0Z"/>
    <path class="cls-7" d="M288.37,35.41c-2.18,2.21-4.03,4.68-5.54,7.4-.63,1.13,1.1,2.14,1.73,1.01,1.43-2.57,3.16-4.9,5.22-6.99,.9-.92-.51-2.33-1.41-1.41h0Z"/>
  </g>
  <g>
    <path class="cls-13" d="M500.71,56.73l-35.9,12.56s-11.43-47.52,9.44-50.19c23.27-2.97,26.46,37.62,26.46,37.62Z"/>
    <path class="cls-13" d="M449.16,23.36c2.2,5.91,4.68,11.71,7.47,17.36,1.39,2.81,2.84,5.6,4.41,8.31s4.04,5,7.27,3.58c2.43-1.07,3.85-4.33,4.57-6.73,.8-2.69,.54-5.57-.49-8.16-2.19-5.49-7.07-9.47-12.94-10.16-2.15-.25-4,2.02-4,4,0,2.37,1.84,3.75,4,4,4.34,.51,8.01,7.6,4.49,10.56l2.83-1.17-.53,.07,2.02,.55c.31,.51,.21,.32-.32-.57-.31-.55-.62-1.09-.92-1.64-.61-1.1-1.2-2.2-1.78-3.31-1.02-1.94-2-3.91-2.94-5.89-2.01-4.22-3.8-8.53-5.44-12.91-1.78-4.78-9.52-2.71-7.71,2.13h0Z"/>
    <path class="cls-13" d="M463.45,7.42c1.88,7.58,2.2,15.42,.84,23.12-.67,3.78,5.11,5.4,5.79,1.6,1.56-8.79,1.31-17.64-.84-26.31-.93-3.75-6.72-2.16-5.79,1.6h0Z"/>
    <path class="cls-13" d="M472.92,3.75c1.74,7.84,2.3,15.8,1.78,23.81-.25,3.85,5.75,3.84,6,0,.56-8.53-.14-17.06-1.99-25.4-.84-3.77-6.62-2.17-5.79,1.6h0Z"/>
    <path class="cls-13" d="M483.27,4.09c1.73,8.68,1.98,17.51,.87,26.29-.48,3.82,5.52,3.79,6,0,1.17-9.32,.75-18.68-1.09-27.89-.76-3.78-6.54-2.18-5.79,1.6h0Z"/>
    <path class="cls-13" d="M492.99,16.1c.85,8.94-.26,18.05-1.34,26.92-.46,3.82,5.54,3.79,6,0,1.08-8.88,2.18-17.98,1.34-26.92-.36-3.81-6.37-3.85-6,0h0Z"/>
    <path class="cls-7" d="M464.02,30.79c2.31,1.79,4.38,3.86,6.13,6.22,.76,1.02,2.5,.03,1.73-1.01-1.85-2.5-3.98-4.71-6.44-6.62-1-.78-2.43,.63-1.41,1.41h0Z"/>
  </g>
  <path class="cls-4" d="M478.82,56.87s45.61,150.52-60.6,202.64"/>
  <path class="cls-7" d="M360,154.79s-18.01,6.77-19.1,38.26c-1.09,31.49-6.3,49.74-6.3,49.74h12.38l.92-8.9,1.9,8.9h10.95l-1.39-34.75"/>
  <ellipse class="cls-9" cx="365.84" cy="358.56" rx="55.77" ry="59.6"/>
  <path class="cls-3" d="M374.84,207.1c-.52,10.86,.15,29.02-.91,39.81"/>
  <path class="cls-7" d="M366.97,218.03c1.28,2,18.56,5.37,23.52,5.56l.37-20.87s-25.67,12.54-23.89,15.31Z"/>
  <path class="cls-13" d="M375.74,153.49h0c12.28,0,22.24,9.97,22.24,22.24v22.29c0,12.28-9.97,22.24-22.24,22.24h-3.62c-12.28,0-22.24-9.97-22.24-22.24v-18.67c0-14.27,11.59-25.86,25.86-25.86Z" transform="translate(747.86 373.75) rotate(180)"/>
  <path class="cls-7" d="M374.02,194.89c-1.5-1.89-4.21-1.52-5.45,.43-.69,1.09,1.04,2.1,1.73,1.01,.61-.96,1.65-.85,2.31-.02,.8,1.01,2.21-.42,1.41-1.41h0Z"/>
  <path class="cls-7" d="M378.22,198.29c-2.42,1.83-5.14,2.84-8.18,2.89-1.29,.02-1.29,2.02,0,2,3.37-.06,6.5-1.14,9.19-3.16,1.01-.77,.02-2.5-1.01-1.73h0Z"/>
  <ellipse class="cls-7" cx="381.9" cy="189.67" rx="1.74" ry="1.86"/>
  <ellipse class="cls-7" cx="360.76" cy="189.67" rx="1.74" ry="1.86"/>
  <path class="cls-7" d="M384.56,181.25c-1.11-.18-2.2-.25-3.32-.15-1.27,.11-1.28,2.11,0,2,.93-.08,1.86-.07,2.79,.08,.53,.09,1.08-.14,1.23-.7,.13-.48-.16-1.14-.7-1.23h0Z"/>
  <path class="cls-7" d="M363.04,180.85c-1.08-.07-2.15,.03-3.2,.28-1.25,.29-.72,2.22,.53,1.93,.88-.2,1.76-.26,2.67-.21,1.29,.08,1.28-1.92,0-2h0Z"/>
  <g>
    <path class="cls-13" d="M343.63,182.86c-.95,5.29,2.77,13.59,8.85,13.59,0,0,1.64-14.81,1.64-14.81,.11-1-4.29-2.95-5.04-3.03-3.25-.38-4.96,1.54-5.45,4.26Z"/>
    <path class="cls-13" d="M404.22,182.86c.95,5.29-2.77,13.59-8.85,13.59,0,0-1.64-14.81-1.64-14.81-.11-1,4.29-2.95,5.04-3.03,3.25-.38,4.96,1.54,5.45,4.26Z"/>
  </g>
  <path class="cls-12" d="M433.43,232l-112.41,1.39c-5.9,.07-10.78,4.59-11.32,10.46l-8.55,93.47c.44,6.49,5.89,11.61,12.64,11.87l103.39,4.11c6.74,.27,12.62-4.39,13.63-10.81l15.13-95.88c1.18-7.49-4.65-14.3-12.51-14.62Z"/>
  <path class="cls-7" d="M385.43,164.6s-17.53,16.79-35.22,14.43c-.2-.03-.38-.16-.46-.35-.84-1.97-4.92-13.17,6.14-21.46,12.16-9.12,32.98-4.1,37.84,3.26,0,0,6.36,21.01,3.32,31.06,0,0-11.98-15.85-11.62-26.93Z"/>
  <path class="cls-7" d="M385.43,164.6s.96,9.28,8.3,23.21c7.34,13.93-3.81,25.34-3.81,25.34l.94,29.64h19.98v-7.6l2.17,7.6h15.64s-12.31-19.62-14.33-40.07c-3.48-35.08-17.16-40.41-23.46-45.13"/>
  <path class="cls-4" d="M274.23,62.94s-13.68,131.09,49.85,199.5"/>
  <path class="cls-5" d="M334.61,562.78s-149-131.72-122.93-199.34c21.13-54.81,120.36,.93,155.05,22.53,10.34,6.44,23.2,7.72,34.39,2.92,5.7-2.44-7.39-15.36-10.26-36.64"/>
  <path class="cls-8" d="M730.73,481.09l-325.66,188.02c-16.38,9.46-36.56,9.46-52.94,0L26.47,481.09C10.09,471.64,0,454.16,0,435.25v329.22c0,29.24,23.7,52.95,52.94,52.95H704.26c29.24,0,52.94-23.7,52.94-52.95V435.24c0,18.92-10.09,36.39-26.47,45.85Z"/>
  <path class="cls-7" d="M161.99,170.82c16.01,34.56,32.02,69.13,48.03,103.69,.54,1.17,2.26,.15,1.73-1.01-16.01-34.56-32.02-69.13-48.03-103.69-.54-1.17-2.26-.15-1.73,1.01h0Z"/>
  <path class="cls-7" d="M216.76,187.45c2.4,8.18,5.23,16.22,8.47,24.11,.48,1.17,2.42,.66,1.93-.53-3.24-7.89-6.07-15.93-8.47-24.11-.36-1.23-2.29-.71-1.93,.53h0Z"/>
  <path class="cls-7" d="M229.17,225.89c.43,2.84,1.31,5.53,2.6,8.1,.58,1.15,2.3,.14,1.73-1.01-1.21-2.42-1.99-4.95-2.4-7.62-.19-1.27-2.12-.73-1.93,.53h0Z"/>
  <path class="cls-7" d="M141.44,258.26c9.26,10.71,19.27,20.72,29.97,29.98,.97,.84,2.39-.57,1.41-1.41-10.7-9.26-20.71-19.27-29.97-29.98-.84-.98-2.25,.44-1.41,1.41h0Z"/>
  <path class="cls-7" d="M555.73,225.15c-10.21,18.03-20.41,36.06-30.62,54.09-.63,1.12,1.09,2.13,1.73,1.01,10.21-18.03,20.41-36.06,30.62-54.09,.63-1.12-1.09-2.13-1.73-1.01h0Z"/>
  <path class="cls-7" d="M610.33,241.35c-14.99,19.98-29.98,39.96-44.97,59.94-.77,1.03,.96,2.03,1.73,1.01,14.99-19.98,29.98-39.96,44.97-59.94,.77-1.03-.96-2.03-1.73-1.01h0Z"/>
  <path class="cls-7" d="M546.99,327.78c1.09-1.52,2.17-3.04,3.26-4.56,.75-1.05-.98-2.05-1.73-1.01-1.09,1.52-2.17,3.04-3.26,4.56-.75,1.05,.98,2.05,1.73,1.01h0Z"/>
  <path class="cls-7" d="M628.82,211.89c-1.52,1.95-3.04,3.91-4.56,5.86-.78,1,.62,2.43,1.41,1.41,1.52-1.95,3.04-3.91,4.56-5.86,.78-1-.62-2.43-1.41-1.41h0Z"/>
  <path class="cls-7" d="M651.56,284.8c-22.8,24.2-45.99,48.03-69.57,71.46-6.71,6.66-13.44,13.29-20.21,19.89-.92,.9,.49,2.31,1.41,1.41,23.8-23.21,47.22-46.82,70.24-70.8,6.55-6.82,13.06-13.67,19.54-20.55,.88-.94-.53-2.35-1.41-1.41h0Z"/>
  <path class="cls-7" d="M80.13,281.15c20.85,16.51,41.7,33.01,62.55,49.52,1,.79,2.42-.62,1.41-1.41-20.85-16.51-41.7-33.01-62.55-49.52-1-.79-2.42,.62-1.41,1.41h0Z"/>
  <g>
    <path class="cls-11" d="M358.5,15.86h0c18.29,0,33.14,14.85,33.14,33.14V124.94h-66.29V49c0-18.29,14.85-33.14,33.14-33.14Z" transform="translate(55.22 274.11) rotate(-45)"/>
    <path class="cls-11" d="M388.75,15.86h0c18.29,0,33.14,14.85,33.14,33.14V124.94h-66.29V49c0-18.29,14.85-33.14,33.14-33.14Z" transform="translate(163.64 -254.27) rotate(45)"/>
  </g>
  <path class="cls-1" d="M332.12,591.21c2.41-2.26,5.46-3.35,8.76-3.17,.64,.03,.64-.97,0-1-3.55-.19-6.87,1.04-9.46,3.46-.47,.44,.24,1.15,.71,.71h0Z"/>
  <path class="cls-1" d="M333.6,598.07c2.61-1.7,5.48-2.73,8.58-3.04,.63-.06,.64-1.07,0-1-3.28,.33-6.32,1.38-9.09,3.18-.54,.35-.04,1.22,.5,.86h0Z"/>
  <path class="cls-1" d="M334.63,605.31c2.79-1.2,5.68-2.05,8.67-2.57,.63-.11,.36-1.07-.27-.96-3.08,.53-6.03,1.43-8.91,2.67-.59,.25-.08,1.12,.5,.86h0Z"/>
  <path class="cls-7" d="M309.36,253.18c-2.18,11.3-3.93,22.66-5.25,34.09-.15,1.28,1.85,1.27,2,0,1.3-11.25,3.04-22.44,5.18-33.56,.24-1.26-1.68-1.8-1.93-.53h0Z"/>
  <path class="cls-7" d="M428.79,284.25c4.59-3.69,9.68-6.66,15.15-8.83,1.18-.47,.67-2.4-.53-1.93-5.82,2.31-11.16,5.42-16.03,9.34-1,.81,.42,2.21,1.41,1.41h0Z"/>
</svg>