<svg xmlns="http://www.w3.org/2000/svg" xmlns:xlink="http://www.w3.org/1999/xlink" width="500" zoomAndPan="magnify" viewBox="0 0 375 374.999991" height="500" preserveAspectRatio="xMidYMid meet" version="1.0"><defs><g/></defs><path fill="#000000" d="M 134.019531 186.855469 C 133.5 187.660156 132.792969 187.023438 133.242188 186.320312 C 149.878906 160.332031 160.3125 195.585938 193.753906 192.625 C 245.242188 188.070312 288.285156 173.527344 320.320312 186.046875 C 322.554688 186.921875 320.980469 188.753906 319.101562 187.898438 C 292.4375 175.777344 242.90625 188.46875 193.53125 193.609375 C 160.074219 197.089844 150.617188 161.292969 134.019531 186.855469 Z M 134.019531 186.855469 " fill-opacity="1" fill-rule="nonzero"/><g fill="#000000" fill-opacity="1"><g transform="translate(75.960937, 200.249987)"><g><path d="M -1.679688 3.960938 C -19.019531 17.941406 -16.441406 38.101562 -9.898438 38.519531 C -2.039062 39 0.601562 18.78125 2.339844 2.578125 C 5.699219 0.898438 16.078125 -6 22.800781 -14.039062 C 22.800781 -14.339844 21.839844 -14.339844 21.660156 -14.101562 C 15.960938 -7.5 6.300781 -0.660156 2.460938 1.441406 C 3.300781 -6.421875 4.441406 -16.980469 4.921875 -20.460938 C 5.21875 -23.398438 0.660156 -23.101562 0.300781 -18.960938 C -0.71875 -6.539062 -1.261719 -0.121094 -1.679688 3.960938 Z M -1.738281 5.28125 C -3.179688 18.539062 -4.980469 37.558594 -9.71875 37.558594 C -14.878906 37.558594 -17.101562 18.539062 -1.738281 5.28125 Z M 3.71875 -25.441406 C 5.460938 -25.441406 6.300781 -29.820312 4.738281 -30.300781 C 2.28125 -30.539062 1.621094 -25.441406 3.71875 -25.441406 Z M 3.71875 -25.441406 "/></g></g></g><g fill="#000000" fill-opacity="1"><g transform="translate(97.380911, 200.249987)"><g><path d="M 36.480469 -14.101562 C 36.480469 -14.398438 35.640625 -14.460938 35.460938 -14.160156 C 32.578125 -9.960938 28.679688 -7.199219 19.980469 -6.71875 C 22.140625 -12.480469 22.199219 -21 17.519531 -22.199219 C 15.300781 -22.800781 9.359375 -20.578125 2.761719 -7.679688 C 3.179688 -10.738281 3.660156 -14.699219 4.140625 -17.878906 C 4.261719 -19.980469 0.238281 -18.898438 -0.179688 -15.601562 C -1.261719 -6.898438 -1.5 -1.140625 -1.921875 0.71875 C -12.421875 16.859375 -17.160156 38.941406 -9.539062 38.519531 C -2.28125 38.101562 0.839844 19.140625 2.699219 -5.519531 C 9.359375 -19.199219 15 -21.660156 17.101562 -21.421875 C 19.261719 -21.179688 19.078125 -12.960938 16.078125 -6.898438 C 8.519531 -6.898438 5.820312 -0.421875 8.28125 1.679688 C 11.519531 4.441406 16.921875 0.601562 19.679688 -5.820312 C 27.839844 -6.058594 33.121094 -8.578125 36.480469 -14.101562 Z M -1.800781 1.921875 C -2.941406 17.160156 -4.378906 37.378906 -9.839844 37.859375 C -14.820312 37.199219 -12.601562 20.21875 -1.800781 1.921875 Z M 8.699219 1.140625 C 7.199219 -0.300781 9 -5.941406 15.839844 -6.058594 C 13.320312 -0.0585938 9.601562 1.980469 8.699219 1.140625 Z M 8.699219 1.140625 "/></g></g></g><g fill="#000000" fill-opacity="1"><g transform="translate(140.405495, 217.664487)"><g><path d="M 3.296875 -1.65625 C 3.296875 -0.925781 3.15625 -0.300781 2.875 0.21875 C 2.601562 0.75 2.21875 1.15625 1.71875 1.4375 C 1.226562 1.71875 0.664062 1.867188 0.03125 1.890625 L 0.03125 0.6875 C 0.65625 0.65625 1.148438 0.4375 1.515625 0.03125 C 1.890625 -0.363281 2.078125 -0.9375 2.078125 -1.6875 L 2.078125 -9.140625 L 3.296875 -9.140625 Z M 3.296875 -1.65625 "/></g></g></g><g fill="#000000" fill-opacity="1"><g transform="translate(148.270529, 217.664487)"><g><path d="M 6.109375 -2.40625 L 2.59375 -2.40625 L 1.625 0 L 0.40625 0 L 4.40625 -9.515625 L 4.46875 -9.515625 L 8.46875 0 L 7.046875 0 Z M 5.6875 -3.46875 L 4.390625 -6.796875 L 3.03125 -3.46875 Z M 5.6875 -3.46875 "/></g></g></g><g fill="#000000" fill-opacity="1"><g transform="translate(160.384102, 217.664487)"><g><path d="M 9.28125 -9.140625 L 9.28125 0.296875 L 9.234375 0.296875 L 2.53125 -6.515625 L 2.546875 0 L 1.3125 0 L 1.3125 -9.421875 L 1.375 -9.421875 L 8.078125 -2.53125 L 8.046875 -9.140625 Z M 9.28125 -9.140625 "/></g></g></g><g fill="#000000" fill-opacity="1"><g transform="translate(174.229967, 217.664487)"><g><path d="M 7.25 -9.140625 L 7.25 -7.96875 L 2.546875 -7.96875 L 2.546875 -5.1875 L 6.75 -5.1875 L 6.75 -4 L 2.546875 -4 L 2.546875 -1.1875 L 7.4375 -1.1875 L 7.4375 0 L 1.3125 0 L 1.3125 -9.140625 Z M 7.25 -9.140625 "/></g></g></g><g fill="#000000" fill-opacity="1"><g transform="translate(185.736614, 217.664487)"><g><path d="M 2.546875 -9.140625 L 2.546875 -1.1875 L 7.1875 -1.1875 L 7.1875 0 L 1.3125 0 L 1.3125 -9.140625 Z M 2.546875 -9.140625 "/></g></g></g><g fill="#000000" fill-opacity="1"><g transform="translate(196.851276, 217.664487)"><g><path d="M 2.546875 -9.140625 L 2.546875 -1.1875 L 7.1875 -1.1875 L 7.1875 0 L 1.3125 0 L 1.3125 -9.140625 Z M 2.546875 -9.140625 "/></g></g></g><g fill="#000000" fill-opacity="1"><g transform="translate(207.965937, 217.664487)"><g><path d="M 7.25 -9.140625 L 7.25 -7.96875 L 2.546875 -7.96875 L 2.546875 -5.1875 L 6.75 -5.1875 L 6.75 -4 L 2.546875 -4 L 2.546875 -1.1875 L 7.4375 -1.1875 L 7.4375 0 L 1.3125 0 L 1.3125 -9.140625 Z M 7.25 -9.140625 "/></g></g></g><g fill="#000000" fill-opacity="1"><g transform="translate(219.472582, 217.664487)"><g/></g></g><g fill="#000000" fill-opacity="1"><g transform="translate(226.71803, 217.664487)"><g><path d="M 3.765625 -9.140625 C 4.765625 -9.140625 5.539062 -8.890625 6.09375 -8.390625 C 6.65625 -7.890625 6.9375 -7.195312 6.9375 -6.3125 C 6.9375 -5.789062 6.832031 -5.304688 6.625 -4.859375 C 6.425781 -4.421875 6.09375 -4.0625 5.625 -3.78125 C 5.164062 -3.5 4.585938 -3.359375 3.890625 -3.359375 L 2.546875 -3.359375 L 2.546875 0 L 1.3125 0 L 1.3125 -9.140625 Z M 3.890625 -4.546875 C 4.328125 -4.546875 4.679688 -4.640625 4.953125 -4.828125 C 5.234375 -5.015625 5.429688 -5.238281 5.546875 -5.5 C 5.660156 -5.769531 5.71875 -6.03125 5.71875 -6.28125 C 5.71875 -6.71875 5.570312 -7.109375 5.28125 -7.453125 C 5 -7.796875 4.554688 -7.96875 3.953125 -7.96875 L 2.546875 -7.96875 L 2.546875 -4.546875 Z M 3.890625 -4.546875 "/></g></g></g><g fill="#000000" fill-opacity="1"><g transform="translate(237.491292, 217.664487)"><g><path d="M 8.5625 0 L 7.328125 0 L 7.328125 -4 L 2.546875 -4 L 2.546875 0 L 1.3125 0 L 1.3125 -9.140625 L 2.546875 -9.140625 L 2.546875 -5.1875 L 7.328125 -5.1875 L 7.328125 -9.140625 L 8.5625 -9.140625 Z M 8.5625 0 "/></g></g></g><g fill="#000000" fill-opacity="1"><g transform="translate(250.616428, 217.664487)"><g><path d="M 6.109375 -2.40625 L 2.59375 -2.40625 L 1.625 0 L 0.40625 0 L 4.40625 -9.515625 L 4.46875 -9.515625 L 8.46875 0 L 7.046875 0 Z M 5.6875 -3.46875 L 4.390625 -6.796875 L 3.03125 -3.46875 Z M 5.6875 -3.46875 "/></g></g></g><g fill="#000000" fill-opacity="1"><g transform="translate(262.729999, 217.664487)"><g><path d="M 2.546875 -9.140625 L 2.546875 -1.1875 L 7.1875 -1.1875 L 7.1875 0 L 1.3125 0 L 1.3125 -9.140625 Z M 2.546875 -9.140625 "/></g></g></g><g fill="#000000" fill-opacity="1"><g transform="translate(273.84466, 217.664487)"><g><path d="M 0.75 -4.5625 C 0.75 -5.394531 0.957031 -6.171875 1.375 -6.890625 C 1.800781 -7.609375 2.367188 -8.175781 3.078125 -8.59375 C 3.785156 -9.019531 4.5625 -9.234375 5.40625 -9.234375 C 6.238281 -9.234375 7.015625 -9.019531 7.734375 -8.59375 C 8.453125 -8.175781 9.023438 -7.609375 9.453125 -6.890625 C 9.878906 -6.171875 10.09375 -5.394531 10.09375 -4.5625 C 10.09375 -3.71875 9.878906 -2.9375 9.453125 -2.21875 C 9.035156 -1.507812 8.460938 -0.945312 7.734375 -0.53125 C 7.015625 -0.113281 6.238281 0.09375 5.40625 0.09375 C 4.5625 0.09375 3.78125 -0.109375 3.0625 -0.515625 C 2.351562 -0.929688 1.789062 -1.492188 1.375 -2.203125 C 0.957031 -2.921875 0.75 -3.707031 0.75 -4.5625 Z M 2.015625 -4.546875 C 2.015625 -3.921875 2.164062 -3.34375 2.46875 -2.8125 C 2.769531 -2.28125 3.179688 -1.859375 3.703125 -1.546875 C 4.234375 -1.242188 4.8125 -1.09375 5.4375 -1.09375 C 6.0625 -1.09375 6.628906 -1.242188 7.140625 -1.546875 C 7.660156 -1.859375 8.070312 -2.28125 8.375 -2.8125 C 8.675781 -3.34375 8.828125 -3.925781 8.828125 -4.5625 C 8.828125 -5.195312 8.671875 -5.78125 8.359375 -6.3125 C 8.054688 -6.851562 7.644531 -7.28125 7.125 -7.59375 C 6.601562 -7.90625 6.03125 -8.0625 5.40625 -8.0625 C 4.78125 -8.0625 4.207031 -7.898438 3.6875 -7.578125 C 3.164062 -7.265625 2.753906 -6.835938 2.453125 -6.296875 C 2.160156 -5.765625 2.015625 -5.179688 2.015625 -4.546875 Z M 2.015625 -4.546875 "/></g></g></g><g fill="#000000" fill-opacity="1"><g transform="translate(287.930768, 217.664487)"><g><path d="M 9.28125 -9.140625 L 9.28125 0.296875 L 9.234375 0.296875 L 2.53125 -6.515625 L 2.546875 0 L 1.3125 0 L 1.3125 -9.421875 L 1.375 -9.421875 L 8.078125 -2.53125 L 8.046875 -9.140625 Z M 9.28125 -9.140625 "/></g></g></g></svg>