<svg xmlns="http://www.w3.org/2000/svg" xmlns:xlink="http://www.w3.org/1999/xlink" width="96" zoomAndPan="magnify" viewBox="0 0 72 72" height="96" preserveAspectRatio="xMidYMid meet" version="1.0"><defs><g/><clipPath id="7d137086a0"><path d="M 36 27 L 71.25 27 L 71.25 31.691406 L 36 31.691406 Z M 36 27 " clip-rule="nonzero"/></clipPath></defs><g clip-path="url(#7d137086a0)"><path fill="#ffffff" d="M 36.230469 29.808594 C 36.132812 29.957031 36.003906 29.839844 36.085938 29.710938 C 39.175781 24.9375 41.113281 31.414062 47.328125 30.871094 C 56.894531 30.03125 64.886719 27.363281 70.839844 29.660156 C 71.253906 29.820312 70.960938 30.160156 70.613281 30 C 65.660156 27.777344 56.457031 30.105469 47.285156 31.050781 C 41.070312 31.691406 39.3125 25.117188 36.230469 29.808594 Z M 36.230469 29.808594 " fill-opacity="1" fill-rule="nonzero"/></g><g fill="#ffffff" fill-opacity="1"><g transform="translate(14.542968, 34.448654)"><g><path d="M -0.632812 1.496094 C -7.183594 6.777344 -6.210938 14.390625 -3.738281 14.550781 C -0.769531 14.730469 0.226562 7.09375 0.882812 0.972656 C 2.152344 0.339844 6.074219 -2.265625 8.613281 -5.304688 C 8.613281 -5.417969 8.25 -5.417969 8.183594 -5.328125 C 6.027344 -2.832031 2.378906 -0.25 0.929688 0.542969 C 1.246094 -2.425781 1.675781 -6.414062 1.859375 -7.730469 C 1.972656 -8.839844 0.25 -8.726562 0.113281 -7.164062 C -0.273438 -2.46875 -0.476562 -0.046875 -0.632812 1.496094 Z M -0.65625 1.996094 C -1.203125 7.003906 -1.882812 14.1875 -3.671875 14.1875 C -5.621094 14.1875 -6.460938 7.003906 -0.65625 1.996094 Z M 1.40625 -9.609375 C 2.0625 -9.609375 2.378906 -11.265625 1.789062 -11.445312 C 0.859375 -11.535156 0.613281 -9.609375 1.40625 -9.609375 Z M 1.40625 -9.609375 "/></g></g></g><g fill="#ffffff" fill-opacity="1"><g transform="translate(22.634067, 34.448654)"><g><path d="M 13.78125 -5.328125 C 13.78125 -5.441406 13.464844 -5.460938 13.394531 -5.347656 C 12.308594 -3.761719 10.832031 -2.71875 7.546875 -2.539062 C 8.363281 -4.714844 8.386719 -7.933594 6.617188 -8.386719 C 5.78125 -8.613281 3.535156 -7.773438 1.042969 -2.902344 C 1.203125 -4.058594 1.382812 -5.554688 1.5625 -6.753906 C 1.609375 -7.546875 0.0898438 -7.140625 -0.0664062 -5.894531 C -0.476562 -2.605469 -0.566406 -0.429688 -0.726562 0.273438 C -4.691406 6.367188 -6.480469 14.710938 -3.605469 14.550781 C -0.859375 14.390625 0.316406 7.230469 1.019531 -2.085938 C 3.535156 -7.253906 5.667969 -8.183594 6.460938 -8.089844 C 7.277344 -8 7.207031 -4.894531 6.074219 -2.605469 C 3.21875 -2.605469 2.199219 -0.160156 3.128906 0.632812 C 4.351562 1.675781 6.390625 0.226562 7.433594 -2.199219 C 10.515625 -2.289062 12.511719 -3.242188 13.78125 -5.328125 Z M -0.679688 0.726562 C -1.109375 6.480469 -1.65625 14.121094 -3.71875 14.300781 C -5.597656 14.050781 -4.757812 7.636719 -0.679688 0.726562 Z M 3.285156 0.429688 C 2.71875 -0.113281 3.398438 -2.242188 5.984375 -2.289062 C 5.03125 -0.0234375 3.625 0.746094 3.285156 0.429688 Z M 3.285156 0.429688 "/></g></g></g><g fill="#ffffff" fill-opacity="1"><g transform="translate(34.532406, 36.520914)"><g><path d="M 0.546875 -0.265625 C 0.546875 -0.148438 0.519531 -0.0507812 0.46875 0.03125 C 0.425781 0.125 0.363281 0.191406 0.28125 0.234375 C 0.195312 0.285156 0.101562 0.3125 0 0.3125 L 0 0.109375 C 0.101562 0.109375 0.1875 0.0703125 0.25 0 C 0.3125 -0.0625 0.34375 -0.15625 0.34375 -0.28125 L 0.34375 -1.5 L 0.546875 -1.5 Z M 0.546875 -0.265625 "/></g></g></g><g fill="#ffffff" fill-opacity="1"><g transform="translate(35.828443, 36.520914)"><g><path d="M 1 -0.390625 L 0.421875 -0.390625 L 0.265625 0 L 0.0625 0 L 0.71875 -1.5625 L 0.734375 -1.5625 L 1.390625 0 L 1.15625 0 Z M 0.9375 -0.5625 L 0.71875 -1.125 L 0.5 -0.5625 Z M 0.9375 -0.5625 "/></g></g></g><g fill="#ffffff" fill-opacity="1"><g transform="translate(37.824593, 36.520914)"><g><path d="M 1.53125 -1.5 L 1.53125 0.046875 L 1.515625 0.046875 L 0.421875 -1.0625 L 0.421875 0 L 0.21875 0 L 0.21875 -1.546875 L 1.328125 -0.421875 L 1.328125 -1.5 Z M 1.53125 -1.5 "/></g></g></g><g fill="#ffffff" fill-opacity="1"><g transform="translate(40.106205, 36.520914)"><g><path d="M 1.1875 -1.5 L 1.1875 -1.3125 L 0.421875 -1.3125 L 0.421875 -0.859375 L 1.109375 -0.859375 L 1.109375 -0.65625 L 0.421875 -0.65625 L 0.421875 -0.203125 L 1.21875 -0.203125 L 1.21875 0 L 0.21875 0 L 0.21875 -1.5 Z M 1.1875 -1.5 "/></g></g></g><g fill="#ffffff" fill-opacity="1"><g transform="translate(42.002338, 36.520914)"><g><path d="M 0.421875 -1.5 L 0.421875 -0.203125 L 1.1875 -0.203125 L 1.1875 0 L 0.21875 0 L 0.21875 -1.5 Z M 0.421875 -1.5 "/></g></g></g><g fill="#ffffff" fill-opacity="1"><g transform="translate(43.833877, 36.520914)"><g><path d="M 0.421875 -1.5 L 0.421875 -0.203125 L 1.1875 -0.203125 L 1.1875 0 L 0.21875 0 L 0.21875 -1.5 Z M 0.421875 -1.5 "/></g></g></g><g fill="#ffffff" fill-opacity="1"><g transform="translate(45.665415, 36.520914)"><g><path d="M 1.1875 -1.5 L 1.1875 -1.3125 L 0.421875 -1.3125 L 0.421875 -0.859375 L 1.109375 -0.859375 L 1.109375 -0.65625 L 0.421875 -0.65625 L 0.421875 -0.203125 L 1.21875 -0.203125 L 1.21875 0 L 0.21875 0 L 0.21875 -1.5 Z M 1.1875 -1.5 "/></g></g></g><g fill="#ffffff" fill-opacity="1"><g transform="translate(47.561549, 36.520914)"><g/></g></g><g fill="#ffffff" fill-opacity="1"><g transform="translate(48.755485, 36.520914)"><g><path d="M 0.625 -1.5 C 0.78125 -1.5 0.90625 -1.457031 1 -1.375 C 1.09375 -1.289062 1.140625 -1.175781 1.140625 -1.03125 C 1.140625 -0.945312 1.117188 -0.867188 1.078125 -0.796875 C 1.046875 -0.722656 0.992188 -0.660156 0.921875 -0.609375 C 0.847656 -0.566406 0.753906 -0.546875 0.640625 -0.546875 L 0.421875 -0.546875 L 0.421875 0 L 0.21875 0 L 0.21875 -1.5 Z M 0.640625 -0.75 C 0.710938 -0.75 0.769531 -0.765625 0.8125 -0.796875 C 0.863281 -0.828125 0.894531 -0.863281 0.90625 -0.90625 C 0.925781 -0.945312 0.9375 -0.988281 0.9375 -1.03125 C 0.9375 -1.101562 0.910156 -1.164062 0.859375 -1.21875 C 0.816406 -1.28125 0.75 -1.3125 0.65625 -1.3125 L 0.421875 -1.3125 L 0.421875 -0.75 Z M 0.640625 -0.75 "/></g></g></g><g fill="#ffffff" fill-opacity="1"><g transform="translate(50.530764, 36.520914)"><g><path d="M 1.40625 0 L 1.203125 0 L 1.203125 -0.65625 L 0.421875 -0.65625 L 0.421875 0 L 0.21875 0 L 0.21875 -1.5 L 0.421875 -1.5 L 0.421875 -0.859375 L 1.203125 -0.859375 L 1.203125 -1.5 L 1.40625 -1.5 Z M 1.40625 0 "/></g></g></g><g fill="#ffffff" fill-opacity="1"><g transform="translate(52.693607, 36.520914)"><g><path d="M 1 -0.390625 L 0.421875 -0.390625 L 0.265625 0 L 0.0625 0 L 0.71875 -1.5625 L 0.734375 -1.5625 L 1.390625 0 L 1.15625 0 Z M 0.9375 -0.5625 L 0.71875 -1.125 L 0.5 -0.5625 Z M 0.9375 -0.5625 "/></g></g></g><g fill="#ffffff" fill-opacity="1"><g transform="translate(54.689756, 36.520914)"><g><path d="M 0.421875 -1.5 L 0.421875 -0.203125 L 1.1875 -0.203125 L 1.1875 0 L 0.21875 0 L 0.21875 -1.5 Z M 0.421875 -1.5 "/></g></g></g><g fill="#ffffff" fill-opacity="1"><g transform="translate(56.521295, 36.520914)"><g><path d="M 0.125 -0.75 C 0.125 -0.882812 0.15625 -1.007812 0.21875 -1.125 C 0.289062 -1.25 0.382812 -1.34375 0.5 -1.40625 C 0.625 -1.476562 0.753906 -1.515625 0.890625 -1.515625 C 1.023438 -1.515625 1.148438 -1.476562 1.265625 -1.40625 C 1.390625 -1.34375 1.484375 -1.25 1.546875 -1.125 C 1.617188 -1.007812 1.65625 -0.882812 1.65625 -0.75 C 1.65625 -0.613281 1.617188 -0.484375 1.546875 -0.359375 C 1.484375 -0.242188 1.390625 -0.148438 1.265625 -0.078125 C 1.148438 -0.015625 1.023438 0.015625 0.890625 0.015625 C 0.753906 0.015625 0.625 -0.015625 0.5 -0.078125 C 0.382812 -0.148438 0.289062 -0.242188 0.21875 -0.359375 C 0.15625 -0.472656 0.125 -0.601562 0.125 -0.75 Z M 0.328125 -0.75 C 0.328125 -0.644531 0.351562 -0.546875 0.40625 -0.453125 C 0.457031 -0.367188 0.523438 -0.300781 0.609375 -0.25 C 0.691406 -0.195312 0.785156 -0.171875 0.890625 -0.171875 C 0.992188 -0.171875 1.085938 -0.195312 1.171875 -0.25 C 1.253906 -0.300781 1.320312 -0.367188 1.375 -0.453125 C 1.425781 -0.546875 1.453125 -0.644531 1.453125 -0.75 C 1.453125 -0.851562 1.425781 -0.945312 1.375 -1.03125 C 1.320312 -1.125 1.253906 -1.195312 1.171875 -1.25 C 1.085938 -1.300781 0.992188 -1.328125 0.890625 -1.328125 C 0.785156 -1.328125 0.691406 -1.300781 0.609375 -1.25 C 0.523438 -1.195312 0.457031 -1.125 0.40625 -1.03125 C 0.351562 -0.945312 0.328125 -0.851562 0.328125 -0.75 Z M 0.328125 -0.75 "/></g></g></g><g fill="#ffffff" fill-opacity="1"><g transform="translate(58.842495, 36.520914)"><g><path d="M 1.53125 -1.5 L 1.53125 0.046875 L 1.515625 0.046875 L 0.421875 -1.0625 L 0.421875 0 L 0.21875 0 L 0.21875 -1.546875 L 1.328125 -0.421875 L 1.328125 -1.5 Z M 1.53125 -1.5 "/></g></g></g></svg>