<svg xmlns="http://www.w3.org/2000/svg" xmlns:xlink="http://www.w3.org/1999/xlink" width="144" zoomAndPan="magnify" viewBox="0 0 108 107.999999" height="144" preserveAspectRatio="xMidYMid meet" version="1.0"><defs><g/></defs><path fill="#ffffff" d="M 54.359375 44.984375 C 54.214844 45.214844 54.015625 45.035156 54.140625 44.832031 C 58.808594 37.40625 61.734375 47.480469 71.117188 46.636719 C 85.558594 45.332031 97.632812 41.175781 106.621094 44.753906 C 107.246094 45.003906 106.804688 45.527344 106.277344 45.285156 C 98.796875 41.820312 84.902344 45.445312 71.054688 46.917969 C 61.667969 47.910156 59.015625 37.683594 54.359375 44.984375 Z M 54.359375 44.984375 " fill-opacity="1" fill-rule="nonzero"/><g fill="#ffffff" fill-opacity="1"><g transform="translate(21.814453, 51.672981)"><g><path d="M -0.953125 2.242188 C -10.777344 10.164062 -9.316406 21.589844 -5.609375 21.828125 C -1.15625 22.097656 0.339844 10.640625 1.324219 1.460938 C 3.230469 0.511719 9.113281 -3.398438 12.917969 -7.957031 C 12.917969 -8.125 12.375 -8.125 12.273438 -7.988281 C 9.042969 -4.25 3.570312 -0.375 1.394531 0.816406 C 1.871094 -3.636719 2.515625 -9.621094 2.789062 -11.59375 C 2.957031 -13.257812 0.375 -13.089844 0.171875 -10.742188 C -0.40625 -3.707031 -0.714844 -0.0664062 -0.953125 2.242188 Z M -0.984375 2.992188 C -1.800781 10.503906 -2.820312 21.28125 -5.507812 21.28125 C -8.429688 21.28125 -9.6875 10.503906 -0.984375 2.992188 Z M 2.109375 -14.414062 C 3.09375 -14.414062 3.570312 -16.898438 2.6875 -17.167969 C 1.292969 -17.304688 0.917969 -14.414062 2.109375 -14.414062 Z M 2.109375 -14.414062 "/></g></g></g><g fill="#ffffff" fill-opacity="1"><g transform="translate(33.9511, 51.672981)"><g><path d="M 20.671875 -7.988281 C 20.671875 -8.160156 20.195312 -8.195312 20.09375 -8.023438 C 18.460938 -5.644531 16.25 -4.078125 11.320312 -3.808594 C 12.546875 -7.070312 12.578125 -11.898438 9.925781 -12.578125 C 8.667969 -12.917969 5.304688 -11.660156 1.5625 -4.351562 C 1.800781 -6.085938 2.074219 -8.328125 2.347656 -10.132812 C 2.414062 -11.320312 0.136719 -10.710938 -0.101562 -8.839844 C -0.714844 -3.910156 -0.851562 -0.644531 -1.089844 0.40625 C -7.039062 9.554688 -9.722656 22.0625 -5.40625 21.828125 C -1.292969 21.589844 0.476562 10.84375 1.53125 -3.128906 C 5.304688 -10.878906 8.5 -12.273438 9.6875 -12.136719 C 10.914062 -12 10.8125 -7.34375 9.113281 -3.910156 C 4.828125 -3.910156 3.296875 -0.238281 4.691406 0.953125 C 6.527344 2.515625 9.585938 0.339844 11.152344 -3.296875 C 15.773438 -3.433594 18.765625 -4.863281 20.671875 -7.988281 Z M -1.019531 1.089844 C -1.664062 9.722656 -2.480469 21.179688 -5.574219 21.453125 C -8.398438 21.078125 -7.140625 11.457031 -1.019531 1.089844 Z M 4.929688 0.644531 C 4.078125 -0.171875 5.101562 -3.367188 8.976562 -3.433594 C 7.546875 -0.0351562 5.441406 1.121094 4.929688 0.644531 Z M 4.929688 0.644531 "/></g></g></g><g fill="#ffffff" fill-opacity="1"><g transform="translate(51.798607, 54.781364)"><g><path d="M 0.8125 -0.40625 C 0.8125 -0.226562 0.773438 -0.078125 0.703125 0.046875 C 0.640625 0.179688 0.546875 0.28125 0.421875 0.34375 C 0.304688 0.414062 0.171875 0.457031 0.015625 0.46875 L 0.015625 0.171875 C 0.160156 0.160156 0.28125 0.101562 0.375 0 C 0.46875 -0.09375 0.515625 -0.234375 0.515625 -0.421875 L 0.515625 -2.265625 L 0.8125 -2.265625 Z M 0.8125 -0.40625 "/></g></g></g><g fill="#ffffff" fill-opacity="1"><g transform="translate(53.742663, 54.781364)"><g><path d="M 1.515625 -0.59375 L 0.640625 -0.59375 L 0.40625 0 L 0.09375 0 L 1.09375 -2.359375 L 1.109375 -2.359375 L 2.09375 0 L 1.75 0 Z M 1.40625 -0.859375 L 1.078125 -1.6875 L 0.75 -0.859375 Z M 1.40625 -0.859375 "/></g></g></g><g fill="#ffffff" fill-opacity="1"><g transform="translate(56.736887, 54.781364)"><g><path d="M 2.296875 -2.265625 L 2.296875 0.078125 L 2.28125 0.078125 L 0.625 -1.609375 L 0.625 0 L 0.328125 0 L 0.328125 -2.328125 L 0.34375 -2.328125 L 2 -0.625 L 1.984375 -2.265625 Z M 2.296875 -2.265625 "/></g></g></g><g fill="#ffffff" fill-opacity="1"><g transform="translate(60.159304, 54.781364)"><g><path d="M 1.796875 -2.265625 L 1.796875 -1.96875 L 0.625 -1.96875 L 0.625 -1.28125 L 1.671875 -1.28125 L 1.671875 -0.984375 L 0.625 -0.984375 L 0.625 -0.296875 L 1.84375 -0.296875 L 1.84375 0 L 0.328125 0 L 0.328125 -2.265625 Z M 1.796875 -2.265625 "/></g></g></g><g fill="#ffffff" fill-opacity="1"><g transform="translate(63.003504, 54.781364)"><g><path d="M 0.625 -2.265625 L 0.625 -0.296875 L 1.78125 -0.296875 L 1.78125 0 L 0.328125 0 L 0.328125 -2.265625 Z M 0.625 -2.265625 "/></g></g></g><g fill="#ffffff" fill-opacity="1"><g transform="translate(65.750812, 54.781364)"><g><path d="M 0.625 -2.265625 L 0.625 -0.296875 L 1.78125 -0.296875 L 1.78125 0 L 0.328125 0 L 0.328125 -2.265625 Z M 0.625 -2.265625 "/></g></g></g><g fill="#ffffff" fill-opacity="1"><g transform="translate(68.498119, 54.781364)"><g><path d="M 1.796875 -2.265625 L 1.796875 -1.96875 L 0.625 -1.96875 L 0.625 -1.28125 L 1.671875 -1.28125 L 1.671875 -0.984375 L 0.625 -0.984375 L 0.625 -0.296875 L 1.84375 -0.296875 L 1.84375 0 L 0.328125 0 L 0.328125 -2.265625 Z M 1.796875 -2.265625 "/></g></g></g><g fill="#ffffff" fill-opacity="1"><g transform="translate(71.342319, 54.781364)"><g/></g></g><g fill="#ffffff" fill-opacity="1"><g transform="translate(73.133223, 54.781364)"><g><path d="M 0.9375 -2.265625 C 1.175781 -2.265625 1.363281 -2.203125 1.5 -2.078125 C 1.644531 -1.953125 1.71875 -1.78125 1.71875 -1.5625 C 1.71875 -1.4375 1.691406 -1.316406 1.640625 -1.203125 C 1.585938 -1.085938 1.503906 -0.992188 1.390625 -0.921875 C 1.273438 -0.859375 1.132812 -0.828125 0.96875 -0.828125 L 0.625 -0.828125 L 0.625 0 L 0.328125 0 L 0.328125 -2.265625 Z M 0.96875 -1.125 C 1.070312 -1.125 1.15625 -1.144531 1.21875 -1.1875 C 1.289062 -1.238281 1.34375 -1.296875 1.375 -1.359375 C 1.40625 -1.421875 1.421875 -1.484375 1.421875 -1.546875 C 1.421875 -1.660156 1.382812 -1.757812 1.3125 -1.84375 C 1.238281 -1.925781 1.128906 -1.96875 0.984375 -1.96875 L 0.625 -1.96875 L 0.625 -1.125 Z M 0.96875 -1.125 "/></g></g></g><g fill="#ffffff" fill-opacity="1"><g transform="translate(75.796142, 54.781364)"><g><path d="M 2.109375 0 L 1.8125 0 L 1.8125 -0.984375 L 0.625 -0.984375 L 0.625 0 L 0.328125 0 L 0.328125 -2.265625 L 0.625 -2.265625 L 0.625 -1.28125 L 1.8125 -1.28125 L 1.8125 -2.265625 L 2.109375 -2.265625 Z M 2.109375 0 "/></g></g></g><g fill="#ffffff" fill-opacity="1"><g transform="translate(79.040405, 54.781364)"><g><path d="M 1.515625 -0.59375 L 0.640625 -0.59375 L 0.40625 0 L 0.09375 0 L 1.09375 -2.359375 L 1.109375 -2.359375 L 2.09375 0 L 1.75 0 Z M 1.40625 -0.859375 L 1.078125 -1.6875 L 0.75 -0.859375 Z M 1.40625 -0.859375 "/></g></g></g><g fill="#ffffff" fill-opacity="1"><g transform="translate(82.034629, 54.781364)"><g><path d="M 0.625 -2.265625 L 0.625 -0.296875 L 1.78125 -0.296875 L 1.78125 0 L 0.328125 0 L 0.328125 -2.265625 Z M 0.625 -2.265625 "/></g></g></g><g fill="#ffffff" fill-opacity="1"><g transform="translate(84.781937, 54.781364)"><g><path d="M 0.1875 -1.125 C 0.1875 -1.332031 0.238281 -1.523438 0.34375 -1.703125 C 0.445312 -1.878906 0.585938 -2.019531 0.765625 -2.125 C 0.941406 -2.226562 1.132812 -2.28125 1.34375 -2.28125 C 1.539062 -2.28125 1.726562 -2.226562 1.90625 -2.125 C 2.082031 -2.019531 2.222656 -1.878906 2.328125 -1.703125 C 2.441406 -1.523438 2.5 -1.332031 2.5 -1.125 C 2.5 -0.914062 2.445312 -0.722656 2.34375 -0.546875 C 2.238281 -0.367188 2.09375 -0.226562 1.90625 -0.125 C 1.726562 -0.0195312 1.539062 0.03125 1.34375 0.03125 C 1.132812 0.03125 0.941406 -0.0195312 0.765625 -0.125 C 0.585938 -0.226562 0.445312 -0.367188 0.34375 -0.546875 C 0.238281 -0.722656 0.1875 -0.914062 0.1875 -1.125 Z M 0.5 -1.125 C 0.5 -0.96875 0.535156 -0.820312 0.609375 -0.6875 C 0.679688 -0.5625 0.78125 -0.457031 0.90625 -0.375 C 1.039062 -0.300781 1.1875 -0.265625 1.34375 -0.265625 C 1.5 -0.265625 1.640625 -0.300781 1.765625 -0.375 C 1.890625 -0.457031 1.988281 -0.5625 2.0625 -0.6875 C 2.144531 -0.820312 2.1875 -0.96875 2.1875 -1.125 C 2.1875 -1.28125 2.144531 -1.425781 2.0625 -1.5625 C 1.988281 -1.695312 1.882812 -1.800781 1.75 -1.875 C 1.625 -1.957031 1.488281 -2 1.34375 -2 C 1.1875 -2 1.039062 -1.957031 0.90625 -1.875 C 0.78125 -1.800781 0.679688 -1.695312 0.609375 -1.5625 C 0.535156 -1.425781 0.5 -1.28125 0.5 -1.125 Z M 0.5 -1.125 "/></g></g></g><g fill="#ffffff" fill-opacity="1"><g transform="translate(88.263737, 54.781364)"><g><path d="M 2.296875 -2.265625 L 2.296875 0.078125 L 2.28125 0.078125 L 0.625 -1.609375 L 0.625 0 L 0.328125 0 L 0.328125 -2.328125 L 0.34375 -2.328125 L 2 -0.625 L 1.984375 -2.265625 Z M 2.296875 -2.265625 "/></g></g></g></svg>
